<mxfile host="app.diagrams.net" modified="2022-03-22T14:46:25.734Z" agent="5.0 (Macintosh; Intel Mac OS X 10_15_7) AppleWebKit/537.36 (KHTML, like Gecko) Chrome/99.0.4844.74 Safari/537.36" etag="ZbAw5Nh2GSxIwDykRpBn" version="15.9.4" type="github">
  <diagram name="Page-1" id="edf60f1a-56cd-e834-aa8a-f176f3a09ee4">
    <mxGraphModel dx="946" dy="620" grid="1" gridSize="10" guides="1" tooltips="1" connect="1" arrows="1" fold="1" page="1" pageScale="1" pageWidth="1100" pageHeight="850" background="none" math="0" shadow="0">
      <root>
        <mxCell id="0" />
        <mxCell id="1" parent="0" />
        <mxCell id="TTlPJ-I1SFsq0LwxmCUP-3" style="edgeStyle=orthogonalEdgeStyle;rounded=0;orthogonalLoop=1;jettySize=auto;html=1;exitX=0.5;exitY=1;exitDx=0;exitDy=0;entryX=0.5;entryY=0;entryDx=0;entryDy=0;" edge="1" parent="1" source="TTlPJ-I1SFsq0LwxmCUP-1" target="TTlPJ-I1SFsq0LwxmCUP-2">
          <mxGeometry relative="1" as="geometry" />
        </mxCell>
        <mxCell id="TTlPJ-I1SFsq0LwxmCUP-1" value="llvm::Value* Node::codeGen(SS_Cell* cell)" style="rounded=1;whiteSpace=wrap;html=1;" vertex="1" parent="1">
          <mxGeometry x="200" y="280" width="220" height="80" as="geometry" />
        </mxCell>
        <mxCell id="TTlPJ-I1SFsq0LwxmCUP-2" value="void Node::walkCodeGen(TableOfCells* TOC, SS_Cell* cell)" style="rounded=1;whiteSpace=wrap;html=1;" vertex="1" parent="1">
          <mxGeometry x="135" y="400" width="350" height="80" as="geometry" />
        </mxCell>
        <mxCell id="TTlPJ-I1SFsq0LwxmCUP-7" style="edgeStyle=orthogonalEdgeStyle;rounded=0;orthogonalLoop=1;jettySize=auto;html=1;exitX=0.5;exitY=1;exitDx=0;exitDy=0;entryX=0.5;entryY=0;entryDx=0;entryDy=0;" edge="1" parent="1" source="TTlPJ-I1SFsq0LwxmCUP-4" target="TTlPJ-I1SFsq0LwxmCUP-1">
          <mxGeometry relative="1" as="geometry" />
        </mxCell>
        <mxCell id="TTlPJ-I1SFsq0LwxmCUP-4" value="void SS_Cell::generateIR()" style="rounded=1;whiteSpace=wrap;html=1;" vertex="1" parent="1">
          <mxGeometry x="200" y="160" width="220" height="80" as="geometry" />
        </mxCell>
        <mxCell id="TTlPJ-I1SFsq0LwxmCUP-6" style="edgeStyle=orthogonalEdgeStyle;rounded=0;orthogonalLoop=1;jettySize=auto;html=1;exitX=0.5;exitY=1;exitDx=0;exitDy=0;entryX=0.5;entryY=0;entryDx=0;entryDy=0;" edge="1" parent="1" source="TTlPJ-I1SFsq0LwxmCUP-5" target="TTlPJ-I1SFsq0LwxmCUP-4">
          <mxGeometry relative="1" as="geometry" />
        </mxCell>
        <mxCell id="TTlPJ-I1SFsq0LwxmCUP-5" value="void TableOfCells::generateIR()" style="rounded=1;whiteSpace=wrap;html=1;" vertex="1" parent="1">
          <mxGeometry x="200" y="40" width="220" height="80" as="geometry" />
        </mxCell>
        <mxCell id="TTlPJ-I1SFsq0LwxmCUP-8" style="edgeStyle=orthogonalEdgeStyle;rounded=0;orthogonalLoop=1;jettySize=auto;html=1;exitX=1;exitY=0.5;exitDx=0;exitDy=0;entryX=0.75;entryY=0;entryDx=0;entryDy=0;" edge="1" parent="1" source="TTlPJ-I1SFsq0LwxmCUP-2" target="TTlPJ-I1SFsq0LwxmCUP-2">
          <mxGeometry relative="1" as="geometry">
            <Array as="points">
              <mxPoint x="505" y="440" />
              <mxPoint x="505" y="380" />
              <mxPoint x="398" y="380" />
            </Array>
          </mxGeometry>
        </mxCell>
      </root>
    </mxGraphModel>
  </diagram>
</mxfile>
